<?xml version="1.0" encoding="UTF-8" standalone="no"?>
<svg
   id="logoSvg"
   role="img"
   aria-label="contraco logo"
   width="241"
   height="108"
   viewBox="0 0 241 108"
   version="1.1"
   sodipodi:docname="Logo_rectangle.svg"
   inkscape:version="1.4.3 (0d15f75, 2025-12-25)"
   xmlns:inkscape="http://www.inkscape.org/namespaces/inkscape"
   xmlns:sodipodi="http://sodipodi.sourceforge.net/DTD/sodipodi-0.dtd"
   xmlns="http://www.w3.org/2000/svg"
   xmlns:svg="http://www.w3.org/2000/svg">
  <sodipodi:namedview
     id="namedview6"
     pagecolor="#ffffff"
     bordercolor="#000000"
     borderopacity="0.25"
     inkscape:showpageshadow="2"
     inkscape:pageopacity="0.0"
     inkscape:pagecheckerboard="0"
     inkscape:deskcolor="#d1d1d1"
     inkscape:zoom="11.046296"
     inkscape:cx="120.49288"
     inkscape:cy="54"
     inkscape:window-width="4592"
     inkscape:window-height="1411"
     inkscape:window-x="-9"
     inkscape:window-y="-9"
     inkscape:window-maximized="1"
     inkscape:current-layer="logoSvg" />
  <defs
     id="defs4">
    <filter
       id="shadowOriginalRounded"
       x="0"
       y="0"
       width="1"
       height="1"
       color-interpolation-filters="sRGB">
      <feDropShadow
         dx="0"
         dy="9"
         stdDeviation="9"
         flood-color="#000"
         flood-opacity="0.4" />
    </filter>
    <filter
       id="shadowLegacy"
       x="-20%"
       y="-40%"
       width="160%"
       height="200%"
       color-interpolation-filters="sRGB">
      <feOffset
         dx="0"
         dy="6"
         in="SourceAlpha"
         result="off"
         id="feOffset1" />
      <feGaussianBlur
         in="off"
         stdDeviation="6"
         result="blur"
         id="feGaussianBlur1" />
      <feColorMatrix
         in="blur"
         type="matrix"
         values="0 0 0 0 0  0 0 0 0 0  0 0 0 0 0  0 0 0 .35 0"
         result="shadow"
         id="feColorMatrix1" />
      <feMerge
         id="feMerge2">
        <feMergeNode
           in="shadow"
           id="feMergeNode1" />
        <feMergeNode
           in="SourceGraphic"
           id="feMergeNode2" />
      </feMerge>
    </filter>
    <filter
       id="shadowSubtle"
       x="-10%"
       y="-20%"
       width="140%"
       height="160%"
       color-interpolation-filters="sRGB">
      <feOffset
         dx="0"
         dy="3"
         in="SourceAlpha"
         result="off"
         id="feOffset2" />
      <feGaussianBlur
         in="off"
         stdDeviation="3"
         result="blur"
         id="feGaussianBlur2" />
      <feColorMatrix
         in="blur"
         type="matrix"
         values="0 0 0 0 0  0 0 0 0 0  0 0 0 0 0  0 0 0 .22 0"
         result="shadow"
         id="feColorMatrix2" />
      <feMerge
         id="feMerge4">
        <feMergeNode
           in="shadow"
           id="feMergeNode3" />
        <feMergeNode
           in="SourceGraphic"
           id="feMergeNode4" />
      </feMerge>
    </filter>
    <style
       id="dynFont" />
    <style
       id="style4" />
  </defs>
  <g
     id="g">
    <path
       d="m 27.055176,66.387207 v 4.154785 q -3.827637,1.210449 -8.833008,1.210449 -8.3095703,0 -12.366211,-5.954101 -3.2387695,-4.710938 -3.2387695,-11.875488 0,-7.066407 3.2387695,-11.123047 3.5332032,-4.416504 10.370605,-4.416504 6.183106,0 9.062012,3.598633 2.322754,2.846191 2.322754,7.524414 h -6.902832 q 0,-6.444825 -4.907226,-6.444825 -2.944336,0 -4.710938,2.649903 -1.7666015,2.649902 -1.7666015,7.066406 0,5.757813 2.5517575,9.487305 3.271485,4.776367 10.108887,4.776367 2.911621,0 5.070801,-0.654297 z m 16.947597,5.365234 q -7.033691,0 -10.697754,-4.580078 -3.435058,-4.318359 -3.435058,-12.104492 0,-7.884277 3.435058,-12.169922 3.631348,-4.514648 10.697754,-4.514648 7.000977,0 10.632325,4.514648 3.435058,4.285645 3.435058,12.169922 0,7.786133 -3.435058,12.104492 -3.631348,4.580078 -10.632325,4.580078 z m -7.426269,-16.68457 q 0,11.973633 7.426269,11.973633 7.36084,0 7.36084,-11.973633 0,-12.006348 -7.36084,-12.006348 -7.426269,0 -7.426269,12.006348 z M 64.32,71 V 39.103027 h 6.019531 v 6.837403 h 0.130859 q 3.042481,-7.557129 10.108887,-7.557129 4.907227,0 7.066406,3.762207 1.504883,2.649902 1.504883,6.739258 V 71 H 83.131035 V 53.595703 q 0,-5.26709 -0.556152,-6.804687 -0.817872,-2.388184 -3.794922,-2.388184 -3.565918,0 -6.084961,4.154785 -2.355469,3.893067 -2.355469,8.898438 V 71 Z"
       id="text4"
       style="font-weight:700;font-size:67px;font-family:'Agfa Rotis Sans Serif', Tahoma, Arial, sans-serif;letter-spacing:-0.02em;fill:#404040"
       aria-label="con" />
    <path
       d="M 104.7874984741211 21.35999946594239 H 220.7874984741211 A 12 12 0 0 1 232.7874984741211 33.359999465942394 L 232.7874984741211 68.44000053405762 A 12 12 0 0 1 220.7874984741211 80.44000053405762 H 104.7874984741211 A 12 12 0 0 1 92.7874984741211 68.44000053405762 V 33.359999465942394 A 12 12 0 0 1 104.7874984741211 21.35999946594239 Z"
       fill="#C00000"
       filter="url(#shadowOriginalRounded)"
       id="path4" />
    <path
       d="m 118.70644,66.583496 v 4.678223 q -2.15918,0.490722 -4.77636,0.490722 -9.58545,0 -9.58545,-7.786132 V 43.813965 h -5.692385 v -4.710938 h 5.692385 v -7.491699 l 6.05224,-3.762207 v 11.253906 h 8.83301 v 4.710938 h -8.83301 v 17.011719 q 0,6.21582 5.0708,6.21582 1.70118,0 3.23877,-0.458008 z M 124.00756,71 V 39.103027 h 6.01953 v 6.444825 h 0.13086 q 2.45361,-7.164551 9.84717,-7.164551 v 6.542969 q -9.97803,0 -9.97803,12.529785 V 71 Z m 36.31478,0 v -3.958496 h -0.16357 q -0.78516,1.733887 -2.58447,3.009766 -2.38819,1.701171 -5.62696,1.701171 -4.35107,0 -6.77197,-2.453613 -2.29004,-2.290039 -2.29004,-6.150391 0,-10.436035 17.43701,-10.436035 v -5.561523 q -0.71972,-4.089356 -4.90722,-4.089356 -5.10352,0 -5.10352,4.874512 h -6.34668 q 0,-9.552734 11.9082,-9.552734 10.46875,0 10.46875,10.697754 V 71 Z m 0,-14.263672 h -1.21045 q -3.86035,0 -6.54297,1.570313 -2.97705,1.733886 -2.97705,4.645507 0,1.799317 1.01416,2.944336 1.04688,1.14502 2.45362,1.14502 2.97705,0 5.20166,-2.846192 2.06103,-2.649902 2.06103,-5.659667 z"
       id="text5"
       style="font-weight:700;font-size:67px;font-family:'Agfa Rotis Sans Serif', Tahoma, Arial, sans-serif;letter-spacing:-0.02em;fill:#ffffff"
       aria-label="tra" />
    <path
       d="m 196.74268,66.387207 v 4.154785 q -3.82764,1.210449 -8.83301,1.210449 -8.30957,0 -12.36621,-5.954101 -3.23877,-4.710938 -3.23877,-11.875488 0,-7.066407 3.23877,-11.123047 3.5332,-4.416504 10.3706,-4.416504 6.18311,0 9.06201,3.598633 2.32276,2.846191 2.32276,7.524414 H 190.396 q 0,-6.444825 -4.90723,-6.444825 -2.94434,0 -4.71094,2.649903 -1.7666,2.649902 -1.7666,7.066406 0,5.757813 2.55176,9.487305 3.27148,4.776367 10.10888,4.776367 2.91163,0 5.07081,-0.654297 z m 16.94759,5.365234 q -7.03369,0 -10.69775,-4.580078 -3.43506,-4.318359 -3.43506,-12.104492 0,-7.884277 3.43506,-12.169922 3.63135,-4.514648 10.69775,-4.514648 7.00098,0 10.63233,4.514648 3.43506,4.285645 3.43506,12.169922 0,7.786133 -3.43506,12.104492 -3.63135,4.580078 -10.63233,4.580078 z M 206.264,55.067871 q 0,11.973633 7.42627,11.973633 7.36084,0 7.36084,-11.973633 0,-12.006348 -7.36084,-12.006348 -7.42627,0 -7.42627,12.006348 z"
       id="text6"
       style="font-weight:700;font-size:67px;font-family:'Agfa Rotis Sans Serif', Tahoma, Arial, sans-serif;letter-spacing:-0.02em;fill:#404040"
       aria-label="co" />
  </g>
</svg>
